<svg width="64" height="18" viewBox="0 0 64 18" fill="none" xmlns="http://www.w3.org/2000/svg">
<path fill-rule="evenodd" clip-rule="evenodd" d="M13.773 4.22703C16.4091 6.86307 16.4091 11.1369 13.773 13.773C11.137 16.409 6.86312 16.409 4.22709 13.773C1.59105 11.1369 1.59105 6.86305 4.22709 4.22703C6.86313 1.59099 11.137 1.59099 13.773 4.22703Z" fill="#F67ACB"/>
<path d="M34.32 14V11.968H29.152V2.8H26.864V14H34.32ZM34.8059 9.872C34.8059 12.304 36.7099 14.16 39.2219 14.16C41.7339 14.16 43.6379 12.304 43.6379 9.872C43.6379 7.44 41.7339 5.584 39.2219 5.584C36.7099 5.584 34.8059 7.44 34.8059 9.872ZM37.0459 9.872C37.0459 8.56 37.9899 7.568 39.2219 7.568C40.4699 7.568 41.3979 8.56 41.3979 9.872C41.3979 11.2 40.4699 12.192 39.2219 12.192C37.9899 12.192 37.0459 11.2 37.0459 9.872ZM51.1285 6.688C50.4885 6 49.5925 5.584 48.5045 5.584C46.2485 5.584 44.5365 7.392 44.5365 9.744C44.5365 12.096 46.2485 13.904 48.5045 13.904C49.5925 13.904 50.4885 13.488 51.1285 12.8V13.072C51.1285 14.432 50.1205 15.392 48.8725 15.392C47.9925 15.392 47.3525 14.896 46.9685 14.112L45.0325 15.136C45.7365 16.448 47.1285 17.36 48.8725 17.36C51.3845 17.36 53.2885 15.504 53.2885 13.072V5.744H51.1285V6.688ZM48.9525 11.936C47.7205 11.936 46.7765 10.992 46.7765 9.744C46.7765 8.496 47.7205 7.568 48.9525 7.568C50.2005 7.568 51.1285 8.496 51.1285 9.744C51.1285 10.992 50.2005 11.936 48.9525 11.936ZM54.5328 9.872C54.5328 12.304 56.4368 14.16 58.9488 14.16C61.4608 14.16 63.3648 12.304 63.3648 9.872C63.3648 7.44 61.4608 5.584 58.9488 5.584C56.4368 5.584 54.5328 7.44 54.5328 9.872ZM56.7728 9.872C56.7728 8.56 57.7168 7.568 58.9488 7.568C60.1968 7.568 61.1248 8.56 61.1248 9.872C61.1248 11.2 60.1968 12.192 58.9488 12.192C57.7168 12.192 56.7728 11.2 56.7728 9.872Z" fill="white"/>
</svg>
