<svg width="64" height="18" viewBox="0 0 64 18" fill="none" xmlns="http://www.w3.org/2000/svg">
<path fill-rule="evenodd" clip-rule="evenodd" d="M14.5226 4.22703C17.1587 6.86307 17.1587 11.1369 14.5226 13.773C11.8866 16.409 7.61275 16.409 4.97672 13.773C2.34068 11.1369 2.34068 6.86305 4.97672 4.22703C7.61276 1.59099 11.8866 1.59099 14.5226 4.22703Z" fill="#F67ACB"/>
<path d="M34.2056 12.92V10.888H29.0376V1.71997H26.7496V12.92H34.2056Z" fill="#050110"/>
<path d="M34.6915 8.79197C34.6915 11.224 36.5955 13.08 39.1075 13.08C41.6195 13.08 43.5235 11.224 43.5235 8.79197C43.5235 6.35997 41.6195 4.50397 39.1075 4.50397C36.5955 4.50397 34.6915 6.35997 34.6915 8.79197ZM36.9315 8.79197C36.9315 7.47997 37.8755 6.48797 39.1075 6.48797C40.3555 6.48797 41.2835 7.47997 41.2835 8.79197C41.2835 10.12 40.3555 11.112 39.1075 11.112C37.8755 11.112 36.9315 10.12 36.9315 8.79197Z" fill="#050110"/>
<path d="M51.0141 5.60797C50.3741 4.91997 49.4781 4.50397 48.3901 4.50397C46.1341 4.50397 44.4221 6.31197 44.4221 8.66397C44.4221 11.016 46.1341 12.824 48.3901 12.824C49.4781 12.824 50.3741 12.408 51.0141 11.72V11.992C51.0141 13.352 50.0061 14.312 48.7581 14.312C47.8781 14.312 47.2381 13.816 46.8541 13.032L44.9181 14.056C45.6221 15.368 47.0141 16.28 48.7581 16.28C51.2701 16.28 53.1741 14.424 53.1741 11.992V4.66397H51.0141V5.60797ZM48.8381 10.856C47.6061 10.856 46.6621 9.91197 46.6621 8.66397C46.6621 7.41597 47.6061 6.48797 48.8381 6.48797C50.0861 6.48797 51.0141 7.41597 51.0141 8.66397C51.0141 9.91197 50.0861 10.856 48.8381 10.856Z" fill="#050110"/>
<path d="M54.4184 8.79197C54.4184 11.224 56.3224 13.08 58.8344 13.08C61.3464 13.08 63.2504 11.224 63.2504 8.79197C63.2504 6.35997 61.3464 4.50397 58.8344 4.50397C56.3224 4.50397 54.4184 6.35997 54.4184 8.79197ZM56.6584 8.79197C56.6584 7.47997 57.6024 6.48797 58.8344 6.48797C60.0824 6.48797 61.0104 7.47997 61.0104 8.79197C61.0104 10.12 60.0824 11.112 58.8344 11.112C57.6024 11.112 56.6584 10.12 56.6584 8.79197Z" fill="#050110"/>
</svg>
